<?xml version="1.0" standalone="no"?>
<!DOCTYPE svg PUBLIC "-//W3C//DTD SVG 20010904//EN"
 "http://www.w3.org/TR/2001/REC-SVG-20010904/DTD/svg10.dtd">
<svg version="1.0" xmlns="http://www.w3.org/2000/svg"
 width="122.000000pt" height="122.000000pt" viewBox="0 0 122.000000 122.000000"
 preserveAspectRatio="xMidYMid meet">
<metadata>
Created by potrace 1.11, written by Peter Selinger 2001-2013
</metadata>
<g transform="translate(0.000000,122.000000) scale(0.100000,-0.100000)"
fill="#000000" stroke="none">
<path d="M935 1173 c-115 -44 -139 -58 -129 -75 7 -11 -20 -22 -216 -82 -260
-80 -243 -72 -236 -117 6 -37 5 -38 -31 -48 -128 -33 -153 -38 -153 -31 0 17
-30 18 -84 1 -85 -26 -85 -26 -52 -136 1 -5 6 -27 10 -47 12 -56 27 -64 89
-48 68 17 87 27 87 48 0 14 20 23 88 40 48 12 90 22 94 22 3 0 12 -16 18 -36
11 -33 15 -36 45 -32 27 3 36 0 44 -19 8 -18 4 -35 -24 -90 -248 -501 -244
-492 -229 -507 8 -9 20 -13 27 -10 7 3 45 74 86 159 60 124 79 155 95 156 55
2 108 0 113 -5 3 -3 7 -68 8 -143 2 -76 3 -146 4 -155 1 -12 9 -18 27 -18 l25
0 -3 159 -3 159 30 4 c17 2 47 1 69 -2 l38 -5 78 -155 c75 -151 100 -182 120
-149 5 8 -45 118 -132 292 -135 271 -139 281 -126 311 7 17 13 39 13 48 0 25
7 28 96 48 71 16 84 17 96 4 8 -8 24 -12 36 -10 30 7 142 24 202 32 28 3 53 8
58 11 16 10 11 31 -94 376 -23 74 -34 97 -47 96 -9 0 -71 -21 -137 -46z m-76
-269 c17 -61 31 -113 31 -117 0 -3 -40 -15 -90 -26 -88 -20 -90 -20 -122 -2
-40 23 -64 27 -102 17 -30 -7 -76 -52 -76 -72 0 -7 -7 -14 -15 -18 -8 -3 -15
-3 -15 -1 0 3 -13 51 -30 107 -16 57 -26 106 -22 109 13 13 397 127 403 121 4
-4 21 -57 38 -118z m-475 -143 c-5 -4 -47 -18 -92 -31 -71 -20 -85 -21 -93 -9
-17 28 -8 39 44 54 110 31 131 33 141 13 6 -11 6 -22 0 -27z m-244 -46 c14
-60 15 -60 -16 -69 -19 -6 -23 0 -36 53 -16 62 -14 68 23 70 11 1 20 -15 29
-54z m508 -1 c22 -15 30 -57 14 -80 -22 -33 -83 -34 -104 -1 -14 22 -8 57 12
77 24 24 48 25 78 4z m-68 -250 c0 -60 -4 -84 -12 -85 -20 -2 -83 3 -86 6 -7
6 82 173 90 169 4 -3 8 -43 8 -90z m115 6 c25 -49 41 -90 35 -91 -13 -1 -55
-1 -77 0 -16 1 -18 12 -17 84 1 88 1 97 9 97 3 0 25 -40 50 -90z"/>
</g>
</svg>
